<svg width="32" height="32" viewBox="0 0 32 32" fill="none" xmlns="http://www.w3.org/2000/svg">
<path fill-rule="evenodd" clip-rule="evenodd" d="M19.1303 22.4843C21.1131 18.9906 23 14.6315 23 10.8C23 7.06818 19.89 4 16 4C12.11 4 9 7.06818 9 10.8C9 14.6315 10.8869 18.9906 12.8697 22.4843C13.8499 24.2115 14.8313 25.6892 15.5676 26.7347C15.7237 26.9564 15.8686 27.1584 16 27.339C16.1314 27.1584 16.2763 26.9564 16.4324 26.7347C17.1687 25.6892 18.1501 24.2115 19.1303 22.4843ZM16.6259 28.1768C18.51 25.6232 24 17.5994 24 10.8C24 6.49218 20.4183 3 16 3C11.5817 3 8 6.49218 8 10.8C8 17.5994 13.49 25.6232 15.3741 28.1768C15.7644 28.7058 16 29 16 29C16 29 16.2356 28.7058 16.6259 28.1768Z" fill="#20607E"/>
<path fill-rule="evenodd" clip-rule="evenodd" d="M16 8C14.3431 8 13 9.34315 13 11H12C12 8.79086 13.7909 7 16 7C18.2091 7 20 8.79086 20 11C20 13.2091 18.2091 15 16 15V14C17.6569 14 19 12.6569 19 11C19 9.34315 17.6569 8 16 8Z" fill="#20607E"/>
</svg>
