<svg width="32" height="32" viewBox="0 0 32 32" fill="none" xmlns="http://www.w3.org/2000/svg">
<path d="M16 30.1147C8.28533 30.1147 1.94267 23.7147 1.94267 16C1.94267 14.4 2.228 12.8573 2.74267 11.372L10.972 27.372C11.0853 27.6 11.2 27.772 11.4853 27.772C11.772 27.772 11.8853 27.6 12 27.372L15.828 18.8573C15.8849 18.7427 15.9422 18.6853 16 18.6853C16.1147 18.6853 16.1147 18.8 16.172 18.8573L20.0573 27.372C20.172 27.6 20.2853 27.772 20.572 27.772C20.8573 27.772 20.972 27.6 21.0853 27.372L29.3147 11.372C29.828 12.8 30.1147 14.3427 30.1147 16C30.0573 23.7147 23.7147 30.1147 16 30.1147ZM16 12.3427C15.8853 12.3427 15.8853 12.228 15.828 12.172L11.428 2.68533C14.3831 1.62109 17.6169 1.62109 20.572 2.68533L16.172 12.172C16.1147 12.228 16.1147 12.3427 16 12.3427ZM11.372 22.628C11.2573 22.628 11.2573 22.5147 11.2 22.4573L4 8.62667C5.25733 6.57067 7.08533 4.856 9.2 3.656L14.2853 14.6267C14.4 14.856 14.5147 14.9133 14.6853 14.9133H17.3147C17.4853 14.9133 17.6 14.856 17.7147 14.6267L22.7427 3.656C24.8573 4.856 26.6853 6.57067 27.9427 8.62667L20.8 22.4573C20.7422 22.5711 20.6849 22.628 20.628 22.628C20.5147 22.628 20.5147 22.5147 20.4573 22.4573L17.7147 16.4C17.6 16.172 17.4853 16.1147 17.3147 16.1147H14.6853C14.5147 16.1147 14.4 16.172 14.2853 16.4L11.5427 22.4573C11.4853 22.5147 11.4853 22.628 11.372 22.628ZM16 32C24.8573 32 32 24.8573 32 16C32 7.14267 24.8573 0 16 0C7.14267 0 0 7.14267 0 16C0 24.8573 7.14267 32 16 32Z" fill="white"/>
</svg>
